{
    "asset" : {
        "generator" : "Khronos glTF Blender I/O v1.4.40",
        "version" : "2.0"
    },
    "scene" : 0,
    "scenes" : [
        {
            "name" : "Scene",
            "nodes" : [
                0,
                1,
                2,
                3,
                4
            ]
        }
    ],
    "nodes" : [
        {
            "mesh" : 0,
            "name" : "base_human_female_default.003",
            "rotation" : [
                0.7071068286895752,
                0,
                0,
                0.7071067094802856
            ],
            "scale" : [
                0.17823077738285065,
                0.17823077738285065,
                0.17823077738285065
            ],
            "translation" : [
                0.0006563067436218262,
                2.2696828842163086,
                -0.04861783981323242
            ]
        },
        {
            "name" : "Camera",
            "rotation" : [
                0.7071068286895752,
                0,
                0,
                0.7071067094802856
            ],
            "translation" : [
                4.523535251617432,
                -0.17695792019367218,
                11.715564727783203
            ]
        },
        {
            "mesh" : 1,
            "name" : "base_human_female_default.002",
            "rotation" : [
                0.7071068286895752,
                0,
                0,
                0.7071067094802856
            ],
            "scale" : [
                0.17823077738285065,
                0.17823077738285065,
                0.17823077738285065
            ],
            "translation" : [
                0.0006563067436218262,
                2.2696828842163086,
                -0.12212276458740234
            ]
        },
        {
            "mesh" : 2,
            "name" : "base_human_female_default",
            "rotation" : [
                0.7071068286895752,
                0,
                0,
                0.7071067094802856
            ],
            "scale" : [
                0.17823077738285065,
                0.17823077738285065,
                0.17823077738285065
            ],
            "translation" : [
                0.0006563067436218262,
                2.2696828842163086,
                -0.04861783981323242
            ]
        },
        {
            "mesh" : 3,
            "name" : "base_human_female_default.001",
            "rotation" : [
                0.7071068286895752,
                0,
                0,
                0.7071067094802856
            ],
            "scale" : [
                0.17823077738285065,
                0.17265357077121735,
                0.17823077738285065
            ],
            "translation" : [
                0.0006563067436218262,
                2.2696828842163086,
                -0.0594029426574707
            ]
        }
    ],
    "materials" : [
        {
            "doubleSided" : true,
            "name" : "Material.003",
            "pbrMetallicRoughness" : {
                "baseColorFactor" : [
                    1,
                    0.6409944891929626,
                    0.13412177562713623,
                    1
                ],
                "metallicFactor" : 0,
                "roughnessFactor" : 0.5
            }
        },
        {
            "doubleSided" : true,
            "name" : "Material",
            "pbrMetallicRoughness" : {
                "baseColorFactor" : [
                    1,
                    0.7510381937026978,
                    0.07034049928188324,
                    1
                ],
                "metallicFactor" : 0,
                "roughnessFactor" : 0.5
            }
        },
        {
            "doubleSided" : true,
            "name" : "Material.001",
            "pbrMetallicRoughness" : {
                "baseColorFactor" : [
                    0.326326459646225,
                    0.00310696242377162,
                    0.004460636060684919,
                    1
                ],
                "metallicFactor" : 0,
                "roughnessFactor" : 0.5
            }
        },
        {
            "doubleSided" : true,
            "name" : "Material.002",
            "pbrMetallicRoughness" : {
                "baseColorFactor" : [
                    0.8000000715255737,
                    0.48801442980766296,
                    0.22064797580242157,
                    1
                ],
                "metallicFactor" : 0,
                "roughnessFactor" : 0.5
            }
        },
        {
            "doubleSided" : true,
            "name" : "Material.005",
            "pbrMetallicRoughness" : {
                "baseColorFactor" : [
                    0.003935939632356167,
                    0.003935939632356167,
                    0.003935939632356167,
                    1
                ],
                "metallicFactor" : 0,
                "roughnessFactor" : 0.5
            }
        }
    ],
    "meshes" : [
        {
            "name" : "base_human_female_default.003",
            "primitives" : [
                {
                    "attributes" : {
                        "POSITION" : 0,
                        "NORMAL" : 1,
                        "TEXCOORD_0" : 2,
                        "COLOR_0" : 3
                    },
                    "indices" : 4,
                    "material" : 0
                },
                {
                    "attributes" : {
                        "POSITION" : 5,
                        "NORMAL" : 6,
                        "TEXCOORD_0" : 7,
                        "COLOR_0" : 8
                    },
                    "indices" : 9,
                    "material" : 1
                }
            ]
        },
        {
            "name" : "base_human_female_default.004",
            "primitives" : [
                {
                    "attributes" : {
                        "POSITION" : 10,
                        "NORMAL" : 11,
                        "TEXCOORD_0" : 12,
                        "COLOR_0" : 13
                    },
                    "indices" : 14,
                    "material" : 2
                }
            ]
        },
        {
            "name" : "base_human_female_default",
            "primitives" : [
                {
                    "attributes" : {
                        "POSITION" : 15,
                        "NORMAL" : 16,
                        "TEXCOORD_0" : 17,
                        "COLOR_0" : 18
                    },
                    "indices" : 19,
                    "material" : 2
                },
                {
                    "attributes" : {
                        "POSITION" : 20,
                        "NORMAL" : 21,
                        "TEXCOORD_0" : 22,
                        "COLOR_0" : 23
                    },
                    "indices" : 24,
                    "material" : 3
                },
                {
                    "attributes" : {
                        "POSITION" : 25,
                        "NORMAL" : 26,
                        "TEXCOORD_0" : 27,
                        "COLOR_0" : 28
                    },
                    "indices" : 29,
                    "material" : 4
                }
            ]
        },
        {
            "name" : "base_human_female_default.002",
            "primitives" : [
                {
                    "attributes" : {
                        "POSITION" : 30,
                        "NORMAL" : 31,
                        "TEXCOORD_0" : 32,
                        "COLOR_0" : 33
                    },
                    "indices" : 34,
                    "material" : 1
                }
            ]
        }
    ],
    "accessors" : [
        {
            "bufferView" : 0,
            "componentType" : 5126,
            "count" : 5400,
            "max" : [
                2.0948123931884766,
                1.9155116081237793,
                1.9968888759613037
            ],
            "min" : [
                -2.0948121547698975,
                -2.2081780433654785,
                -12.698153495788574
            ],
            "type" : "VEC3"
        },
        {
            "bufferView" : 1,
            "componentType" : 5126,
            "count" : 5400,
            "type" : "VEC3"
        },
        {
            "bufferView" : 2,
            "componentType" : 5126,
            "count" : 5400,
            "type" : "VEC2"
        },
        {
            "bufferView" : 3,
            "componentType" : 5123,
            "count" : 5400,
            "normalized" : true,
            "type" : "VEC4"
        },
        {
            "bufferView" : 4,
            "componentType" : 5123,
            "count" : 8100,
            "type" : "SCALAR"
        },
        {
            "bufferView" : 5,
            "componentType" : 5126,
            "count" : 7200,
            "max" : [
                3.6265382766723633,
                2.3336708545684814,
                11.074872970581055
            ],
            "min" : [
                -3.6265382766723633,
                -3.9499809741973877,
                -10.250008583068848
            ],
            "type" : "VEC3"
        },
        {
            "bufferView" : 6,
            "componentType" : 5126,
            "count" : 7200,
            "type" : "VEC3"
        },
        {
            "bufferView" : 7,
            "componentType" : 5126,
            "count" : 7200,
            "type" : "VEC2"
        },
        {
            "bufferView" : 8,
            "componentType" : 5123,
            "count" : 7200,
            "normalized" : true,
            "type" : "VEC4"
        },
        {
            "bufferView" : 9,
            "componentType" : 5123,
            "count" : 10800,
            "type" : "SCALAR"
        },
        {
            "bufferView" : 10,
            "componentType" : 5126,
            "count" : 160,
            "max" : [
                0.4089832007884979,
                1.9531065225601196,
                -8.093648910522461
            ],
            "min" : [
                -0.4089832603931427,
                1.8513336181640625,
                -8.199569702148438
            ],
            "type" : "VEC3"
        },
        {
            "bufferView" : 11,
            "componentType" : 5126,
            "count" : 160,
            "type" : "VEC3"
        },
        {
            "bufferView" : 12,
            "componentType" : 5126,
            "count" : 160,
            "type" : "VEC2"
        },
        {
            "bufferView" : 13,
            "componentType" : 5123,
            "count" : 160,
            "normalized" : true,
            "type" : "VEC4"
        },
        {
            "bufferView" : 14,
            "componentType" : 5123,
            "count" : 240,
            "type" : "SCALAR"
        },
        {
            "bufferView" : 15,
            "componentType" : 5126,
            "count" : 13928,
            "max" : [
                4.26345157623291,
                2.18708872795105,
                12.7145357131958
            ],
            "min" : [
                -4.26345157623291,
                -0.9390634894371033,
                -9.305689811706543
            ],
            "type" : "VEC3"
        },
        {
            "bufferView" : 16,
            "componentType" : 5126,
            "count" : 13928,
            "type" : "VEC3"
        },
        {
            "bufferView" : 17,
            "componentType" : 5126,
            "count" : 13928,
            "type" : "VEC2"
        },
        {
            "bufferView" : 18,
            "componentType" : 5123,
            "count" : 13928,
            "normalized" : true,
            "type" : "VEC4"
        },
        {
            "bufferView" : 19,
            "componentType" : 5123,
            "count" : 20892,
            "type" : "SCALAR"
        },
        {
            "bufferView" : 20,
            "componentType" : 5126,
            "count" : 5280,
            "max" : [
                1.6862812042236328,
                1.830277919769287,
                -7.474338054656982
            ],
            "min" : [
                -1.6862810850143433,
                -1.8831864595413208,
                -11.321829795837402
            ],
            "type" : "VEC3"
        },
        {
            "bufferView" : 21,
            "componentType" : 5126,
            "count" : 5280,
            "type" : "VEC3"
        },
        {
            "bufferView" : 22,
            "componentType" : 5126,
            "count" : 5280,
            "type" : "VEC2"
        },
        {
            "bufferView" : 23,
            "componentType" : 5123,
            "count" : 5280,
            "normalized" : true,
            "type" : "VEC4"
        },
        {
            "bufferView" : 24,
            "componentType" : 5123,
            "count" : 7920,
            "type" : "SCALAR"
        },
        {
            "bufferView" : 25,
            "componentType" : 5126,
            "count" : 3184,
            "max" : [
                1.0171222686767578,
                1.4463427066802979,
                -9.005423545837402
            ],
            "min" : [
                -1.0171222686767578,
                1.0447031259536743,
                -9.875833511352539
            ],
            "type" : "VEC3"
        },
        {
            "bufferView" : 26,
            "componentType" : 5126,
            "count" : 3184,
            "type" : "VEC3"
        },
        {
            "bufferView" : 27,
            "componentType" : 5126,
            "count" : 3184,
            "type" : "VEC2"
        },
        {
            "bufferView" : 28,
            "componentType" : 5123,
            "count" : 3184,
            "normalized" : true,
            "type" : "VEC4"
        },
        {
            "bufferView" : 29,
            "componentType" : 5123,
            "count" : 4776,
            "type" : "SCALAR"
        },
        {
            "bufferView" : 30,
            "componentType" : 5126,
            "count" : 1920,
            "max" : [
                0.8395267128944397,
                2.4175076484680176,
                -2.6305484771728516
            ],
            "min" : [
                -0.8395267128944397,
                -0.9207272529602051,
                -6.8081560134887695
            ],
            "type" : "VEC3"
        },
        {
            "bufferView" : 31,
            "componentType" : 5126,
            "count" : 1920,
            "type" : "VEC3"
        },
        {
            "bufferView" : 32,
            "componentType" : 5126,
            "count" : 1920,
            "type" : "VEC2"
        },
        {
            "bufferView" : 33,
            "componentType" : 5123,
            "count" : 1920,
            "normalized" : true,
            "type" : "VEC4"
        },
        {
            "bufferView" : 34,
            "componentType" : 5123,
            "count" : 2880,
            "type" : "SCALAR"
        }
    ],
    "bufferViews" : [
        {
            "buffer" : 0,
            "byteLength" : 64800,
            "byteOffset" : 0
        },
        {
            "buffer" : 0,
            "byteLength" : 64800,
            "byteOffset" : 64800
        },
        {
            "buffer" : 0,
            "byteLength" : 43200,
            "byteOffset" : 129600
        },
        {
            "buffer" : 0,
            "byteLength" : 43200,
            "byteOffset" : 172800
        },
        {
            "buffer" : 0,
            "byteLength" : 16200,
            "byteOffset" : 216000
        },
        {
            "buffer" : 0,
            "byteLength" : 86400,
            "byteOffset" : 232200
        },
        {
            "buffer" : 0,
            "byteLength" : 86400,
            "byteOffset" : 318600
        },
        {
            "buffer" : 0,
            "byteLength" : 57600,
            "byteOffset" : 405000
        },
        {
            "buffer" : 0,
            "byteLength" : 57600,
            "byteOffset" : 462600
        },
        {
            "buffer" : 0,
            "byteLength" : 21600,
            "byteOffset" : 520200
        },
        {
            "buffer" : 0,
            "byteLength" : 1920,
            "byteOffset" : 541800
        },
        {
            "buffer" : 0,
            "byteLength" : 1920,
            "byteOffset" : 543720
        },
        {
            "buffer" : 0,
            "byteLength" : 1280,
            "byteOffset" : 545640
        },
        {
            "buffer" : 0,
            "byteLength" : 1280,
            "byteOffset" : 546920
        },
        {
            "buffer" : 0,
            "byteLength" : 480,
            "byteOffset" : 548200
        },
        {
            "buffer" : 0,
            "byteLength" : 167136,
            "byteOffset" : 548680
        },
        {
            "buffer" : 0,
            "byteLength" : 167136,
            "byteOffset" : 715816
        },
        {
            "buffer" : 0,
            "byteLength" : 111424,
            "byteOffset" : 882952
        },
        {
            "buffer" : 0,
            "byteLength" : 111424,
            "byteOffset" : 994376
        },
        {
            "buffer" : 0,
            "byteLength" : 41784,
            "byteOffset" : 1105800
        },
        {
            "buffer" : 0,
            "byteLength" : 63360,
            "byteOffset" : 1147584
        },
        {
            "buffer" : 0,
            "byteLength" : 63360,
            "byteOffset" : 1210944
        },
        {
            "buffer" : 0,
            "byteLength" : 42240,
            "byteOffset" : 1274304
        },
        {
            "buffer" : 0,
            "byteLength" : 42240,
            "byteOffset" : 1316544
        },
        {
            "buffer" : 0,
            "byteLength" : 15840,
            "byteOffset" : 1358784
        },
        {
            "buffer" : 0,
            "byteLength" : 38208,
            "byteOffset" : 1374624
        },
        {
            "buffer" : 0,
            "byteLength" : 38208,
            "byteOffset" : 1412832
        },
        {
            "buffer" : 0,
            "byteLength" : 25472,
            "byteOffset" : 1451040
        },
        {
            "buffer" : 0,
            "byteLength" : 25472,
            "byteOffset" : 1476512
        },
        {
            "buffer" : 0,
            "byteLength" : 9552,
            "byteOffset" : 1501984
        },
        {
            "buffer" : 0,
            "byteLength" : 23040,
            "byteOffset" : 1511536
        },
        {
            "buffer" : 0,
            "byteLength" : 23040,
            "byteOffset" : 1534576
        },
        {
            "buffer" : 0,
            "byteLength" : 15360,
            "byteOffset" : 1557616
        },
        {
            "buffer" : 0,
            "byteLength" : 15360,
            "byteOffset" : 1572976
        },
        {
            "buffer" : 0,
            "byteLength" : 5760,
            "byteOffset" : 1588336
        }
    ],
    "buffers" : [
        {
            "byteLength" : 1594096,
            "uri" : "data:application/octet-stream;base64,"
        }
    ]
}
